<?xml version="1.0" encoding="utf-8"?>
<!-- Generator: Adobe Illustrator 16.0.0, SVG Export Plug-In . SVG Version: 6.00 Build 0)  -->
<!DOCTYPE svg PUBLIC "-//W3C//DTD SVG 1.1//EN" "http://www.w3.org/Graphics/SVG/1.1/DTD/svg11.dtd">
<svg version="1.1" xmlns="http://www.w3.org/2000/svg" xmlns:xlink="http://www.w3.org/1999/xlink" x="0px" y="0px" width="50px"
	 height="50px" viewBox="0 0 50 50" enable-background="new 0 0 50 50" xml:space="preserve">
<g id="Layer_1">
</g>
<g id="Layer_2">
	<g>
		<path d="M5,41.936c0,1.657,1.343,3,3,3.064h34c1.657-0.064,3-1.408,3-3.064V22.75L5,22.686V41.936z M32.708,25.186H42.5v7.317
			h-9.792V25.186z M32.708,35.003H42.5v6.933c0,0.276-0.224,0.5-0.5,0.5h-9.292V35.003z M19.792,25.25l10.417-0.064v7.317
			l-10.417,0.064V25.25z M19.792,35.067l10.417-0.064v7.433L19.792,42.5V35.067z M7.286,25.186l10.006,0.064v7.317L7.286,32.503
			V25.186z M7.286,35.003l10.006,0.064V42.5l-9.506-0.064c-0.276,0-0.5-0.224-0.5-0.5V35.003z"/>
		<path d="M42,9.5h-7.625V6.25c0-0.69-0.56-1.25-1.25-1.25s-1.25,0.56-1.25,1.25V9.5H17.424V6.25c0-0.69-0.56-1.25-1.25-1.25
			s-1.25,0.56-1.25,1.25V9.5H8c-1.657,0-3,1.343-3,3v8.186h40V12.5C45,10.843,43.657,9.5,42,9.5z M16.203,17.496
			c-1.842,0-3.336-1.494-3.336-3.336c0-1.389,0.85-2.578,2.057-3.08v3.138c0,0.69,0.56,1.25,1.25,1.25s1.25-0.56,1.25-1.25v-3.156
			c1.237,0.488,2.115,1.688,2.115,3.098C19.539,16.002,18.045,17.496,16.203,17.496z M33.125,17.496
			c-1.842,0-3.336-1.494-3.336-3.336c0-1.399,0.864-2.594,2.086-3.089v3.147c0,0.69,0.56,1.25,1.25,1.25s1.25-0.56,1.25-1.25v-3.147
			c1.222,0.495,2.086,1.689,2.086,3.089C36.461,16.002,34.967,17.496,33.125,17.496z"/>
	</g>
</g>
</svg>
